<?xml version="1.0" standalone="no"?>
<!DOCTYPE svg PUBLIC "-//W3C//DTD SVG 20010904//EN"
 "http://www.w3.org/TR/2001/REC-SVG-20010904/DTD/svg10.dtd">
<svg version="1.0" xmlns="http://www.w3.org/2000/svg"
 width="300.000000pt" height="300.000000pt" viewBox="0 0 300.000000 300.000000"
 preserveAspectRatio="xMidYMid meet">
<metadata>
Created by potrace 1.11, written by Peter Selinger 2001-2013
</metadata>
<g transform="translate(0.000000,300.000000) scale(0.100000,-0.100000)"
fill="#000000" stroke="none">
<path d="M1477 2164 c-1 -1 -24 -5 -52 -8 -71 -10 -138 -45 -150 -79 -8 -24
-4 -39 23 -91 18 -34 52 -83 77 -108 25 -26 45 -50 44 -55 0 -4 -18 -23 -40
-42 l-39 -34 -71 32 c-125 56 -216 60 -306 15 -73 -37 -99 -82 -79 -141 7 -22
5 -23 -58 -23 -232 0 -425 -144 -412 -308 3 -35 1 -50 -6 -46 -13 8 -130 8
-188 -1 -47 -7 -93 -27 -124 -54 -16 -15 -52 -75 -55 -93 -1 -5 -1 -11 -2 -15
-1 -5 0 -20 1 -35 1 -16 -3 -28 -9 -28 -5 0 -9 -8 -8 -18 0 -11 9 -18 21 -18
12 0 32 -4 45 -8 22 -8 23 -6 17 20 -12 50 -6 86 17 107 85 74 200 70 464 -17
186 -62 227 -68 333 -51 105 16 142 12 217 -23 59 -28 89 -35 158 -40 76 -4
85 -7 80 -23 -7 -22 31 -62 102 -107 51 -33 52 -33 90 -17 57 24 100 72 124
140 2 5 6 9 9 8 3 0 22 -4 44 -7 21 -4 43 -9 49 -13 6 -4 7 -1 2 7 -6 10 -4
12 8 7 9 -3 17 -2 19 4 2 5 13 11 25 13 11 3 42 16 68 29 38 21 52 24 78 16
42 -13 223 -12 265 0 18 5 35 10 37 10 3 1 6 1 8 2 1 0 11 2 23 4 11 3 67 20
125 40 57 20 120 38 139 41 19 2 46 7 60 10 14 3 53 5 88 5 108 -1 179 -52
169 -122 -5 -36 -4 -37 28 -37 40 0 67 14 44 23 -11 4 -14 14 -11 30 2 13 -1
40 -8 60 -31 95 -125 146 -268 147 l-83 1 7 26 c29 108 -39 192 -220 269 -78
33 -104 38 -261 47 -33 2 -63 4 -67 4 -4 1 2 19 13 41 22 41 20 71 -4 100 -67
83 -218 93 -376 24 l-53 -24 -42 32 c-22 17 -45 35 -50 39 -4 4 8 27 28 51 74
89 104 182 70 219 -16 18 -94 65 -101 60 -2 0 -4 -1 -5 0 -6 1 -70 4 -71 3z
m25 -48 c9 9 66 -24 77 -45 11 -20 4 -56 -25 -117 -32 -69 -41 -72 -81 -29
-79 83 -101 139 -68 172 20 20 67 32 81 22 6 -5 13 -6 16 -3z m-332 -354 c19
-9 52 -27 73 -40 l38 -25 -22 -23 c-12 -13 -26 -21 -30 -18 -5 3 -9 1 -9 -5 0
-13 -68 -35 -106 -34 -60 2 -124 51 -124 94 0 10 16 31 36 47 40 33 78 34 144
4z m778 4 c34 -18 62 -52 62 -76 0 -20 -54 -73 -63 -63 -4 3 -7 2 -7 -4 0 -14
-50 -7 -97 12 -54 22 -113 65 -113 82 0 7 20 26 45 42 36 23 55 28 93 26 27
-1 62 -10 80 -19z m-428 -3 c14 -9 35 -25 48 -37 l23 -21 -42 -36 -42 -36 -43
31 c-24 17 -43 35 -43 41 -1 9 58 72 69 74 3 1 17 -6 30 -16z m-99 -169 c7 -8
-1 -24 -27 -52 l-38 -39 -50 22 c-63 28 -87 37 -105 41 -23 4 -38 24 -18 24 9
0 44 18 78 40 l61 40 45 -32 c24 -18 48 -37 54 -44z m285 31 c32 -20 75 -38
96 -41 51 -9 40 -26 -39 -63 -76 -36 -68 -34 -85 -18 -7 7 -29 23 -48 35 -81
51 -80 49 -35 87 22 19 43 34 46 35 4 0 33 -16 65 -35z m-699 -48 c76 -13 204
-63 271 -106 l24 -14 -37 -34 c-20 -18 -40 -33 -45 -33 -5 0 -32 13 -60 30
-27 16 -50 27 -50 24 0 -4 -6 -2 -12 3 -33 25 -109 40 -206 40 -56 0 -102 -4
-102 -8 0 -5 -3 -8 -7 -7 -12 3 -85 -22 -110 -38 -13 -8 -23 -12 -23 -8 0 4
-10 -6 -22 -21 -24 -31 -28 -83 -8 -119 29 -55 259 -91 378 -60 30 8 90 32
134 54 l79 40 54 -35 c30 -19 55 -39 55 -45 0 -15 -48 -42 -61 -34 -7 4 -9 3
-6 -3 4 -7 -121 -64 -153 -69 -3 0 -17 -5 -31 -11 -40 -17 -204 -33 -229 -23
-3 2 -15 4 -27 5 -34 4 -153 48 -153 57 0 4 -6 8 -14 8 -8 0 -37 23 -65 50
-39 39 -52 60 -58 93 -4 23 -6 47 -4 52 2 6 4 15 5 21 2 15 35 64 60 92 36 38
109 81 166 95 53 14 187 15 257 4z m1294 -22 c124 -47 194 -110 217 -195 7
-27 5 -44 -8 -75 -19 -44 -88 -118 -101 -109 -5 3 -9 1 -9 -5 0 -11 -90 -46
-158 -62 -118 -27 -251 -2 -419 76 -51 24 -101 51 -110 61 -16 16 -15 18 12
40 60 48 69 49 112 16 21 -17 67 -45 102 -63 55 -27 77 -32 151 -35 136 -5
262 39 293 103 17 36 13 90 -8 113 -32 35 -111 61 -208 67 -79 4 -104 2 -178
-20 -47 -14 -100 -32 -118 -41 -17 -9 -37 -14 -43 -10 -7 4 -8 3 -4 -4 12 -20
-11 -13 -59 17 -45 29 -45 29 -23 43 33 21 150 73 188 84 149 40 262 40 371
-1z m-723 -70 c23 -20 40 -41 36 -46 -3 -5 -10 -6 -16 -3 -6 4 -8 2 -4 -4 3
-6 -6 -20 -22 -31 l-28 -20 -62 44 -63 43 43 35 c47 40 49 39 116 -18z m667
-56 c48 -23 69 -43 79 -76 5 -15 3 -23 -5 -23 -7 0 -10 -3 -6 -6 10 -10 -26
-42 -71 -62 -49 -22 -115 -21 -176 4 -55 21 -147 84 -140 95 3 5 0 9 -5 9 -6
0 -11 4 -11 8 0 7 35 25 140 71 35 15 143 4 195 -20z m-1280 6 c41 -8 106 -38
150 -68 l37 -25 -46 -31 c-25 -18 -46 -29 -46 -25 0 3 -6 2 -12 -4 -19 -15
-94 -33 -138 -34 -92 -1 -196 63 -183 112 7 25 61 69 100 79 29 8 87 6 138 -4z
m499 -100 c-6 -14 -49 -46 -60 -44 -4 0 -10 -4 -13 -10 -7 -11 -14 -6 -95 54
-14 11 -26 23 -26 27 0 3 19 20 41 37 l42 30 58 -40 c38 -26 56 -44 53 -54z
m279 14 c-3 -11 -9 -19 -13 -19 -4 0 -19 -12 -33 -26 -25 -25 -26 -25 -54 -7
-54 35 -60 44 -36 60 12 8 34 25 49 38 l27 23 32 -25 c22 -17 31 -32 28 -44z
m-154 -106 c2 -1 -11 -16 -28 -34 l-32 -31 -40 27 c-21 16 -37 30 -34 33 3 3
22 15 42 28 l38 23 25 -22 c14 -12 27 -23 29 -24z m67 -52 c5 -6 51 -32 103
-60 l94 -49 -36 -10 c-74 -20 -229 10 -254 50 -3 6 12 26 33 44 43 37 46 38
60 25z m-241 -23 c19 -13 37 -29 39 -35 6 -15 -33 -43 -63 -46 -12 -1 -21 -4
-21 -8 0 -9 -141 -9 -155 -1 -5 4 -16 7 -24 9 -20 3 -38 23 -23 24 16 2 22 4
57 18 17 6 44 17 60 23 17 7 41 18 55 25 33 17 35 17 75 -9z m194 -150 c13
-10 20 -18 16 -18 -5 0 -1 -8 9 -19 23 -25 12 -46 -39 -76 -53 -30 -62 -31
-91 -4 -13 12 -34 27 -46 33 -71 36 18 140 96 113 17 -5 42 -18 55 -29z"/>
</g>
</svg>
